<svg width="95" height="37" viewBox="0 0 95 37" fill="none" xmlns="http://www.w3.org/2000/svg">
<path d="M15.14 31.4433C15.3133 32.1333 15.4 32.995 15.4 34.03C15.4 35.0217 15.3133 35.8833 15.14 36.6167H9.96666C9.79333 35.8833 9.70666 35.0217 9.70666 34.03C9.70666 32.995 9.79333 32.1333 9.96666 31.4433H6.72666C6.55666 30.71 6.47333 29.8467 6.47333 28.85C6.47333 27.815 6.55666 26.9533 6.72666 26.2633H3.49333C3.32 25.53 3.23333 24.6683 3.23333 23.6767C3.23333 22.6417 3.32 21.78 3.49333 21.09H0.259996C0.0866628 20.3567 -3.8147e-06 19.495 -3.8147e-06 18.5033C-3.8147e-06 17.4683 0.0866628 16.6033 0.259996 15.91H3.49333C3.32 15.1767 3.23333 14.315 3.23333 13.3233C3.23333 12.2883 3.32 11.4267 3.49333 10.7367H6.72666C6.55666 10.0033 6.47333 9.14167 6.47333 8.15001C6.47333 7.11501 6.55666 6.25334 6.72666 5.56334H9.96666C9.79333 4.83001 9.70666 3.96667 9.70666 2.97001C9.70666 1.93501 9.79333 1.07334 9.96666 0.383341H15.14C15.3133 1.07334 15.4 1.93501 15.4 2.97001C15.4 3.96667 15.3133 4.83001 15.14 5.56334H11.9067C12.08 6.25334 12.1667 7.11501 12.1667 8.15001C12.1667 9.14167 12.08 10.0033 11.9067 10.7367H8.67333C8.84166 11.4267 8.92666 12.2883 8.92666 13.3233C8.92666 14.315 8.84166 15.1767 8.67333 15.91H5.43333C5.60666 16.6033 5.69333 17.4683 5.69333 18.5033C5.69333 19.495 5.60666 20.3567 5.43333 21.09H8.67333C8.84166 21.78 8.92666 22.6417 8.92666 23.6767C8.92666 24.6683 8.84166 25.53 8.67333 26.2633H11.9067C12.08 26.9533 12.1667 27.815 12.1667 28.85C12.1667 29.8467 12.08 30.71 11.9067 31.4433H15.14Z" fill="#F8F2EB"/>
<path d="M94.253 18.5033C94.253 19.495 94.1663 20.3567 93.993 21.09H90.7597C90.933 21.78 91.0197 22.6417 91.0197 23.6767C91.0197 24.6683 90.933 25.53 90.7597 26.2633H87.5263C87.6947 26.9533 87.7797 27.815 87.7797 28.85C87.7797 29.8467 87.6947 30.71 87.5263 31.4433H84.2863C84.4597 32.1333 84.5463 32.995 84.5463 34.03C84.5463 35.0217 84.4597 35.8833 84.2863 36.6167H79.113C78.9397 35.8833 78.853 35.0217 78.853 34.03C78.853 32.995 78.9397 32.1333 79.113 31.4433H82.3463C82.173 30.71 82.0863 29.8467 82.0863 28.85C82.0863 27.815 82.173 26.9533 82.3463 26.2633H85.5797C85.4097 25.53 85.3263 24.6683 85.3263 23.6767C85.3263 22.6417 85.4097 21.78 85.5797 21.09H88.8197C88.6463 20.3567 88.5597 19.495 88.5597 18.5033C88.5597 17.4683 88.6463 16.6033 88.8197 15.91H85.5797C85.4097 15.1767 85.3263 14.315 85.3263 13.3233C85.3263 12.2883 85.4097 11.4267 85.5797 10.7367H82.3463C82.173 10.0033 82.0863 9.14167 82.0863 8.15001C82.0863 7.11501 82.173 6.25334 82.3463 5.56334H79.113C78.9397 4.83001 78.853 3.96667 78.853 2.97001C78.853 1.93501 78.9397 1.07334 79.113 0.383341H84.2863C84.4597 1.07334 84.5463 1.93501 84.5463 2.97001C84.5463 3.96667 84.4597 4.83001 84.2863 5.56334H87.5263C87.6947 6.25334 87.7797 7.11501 87.7797 8.15001C87.7797 9.14167 87.6947 10.0033 87.5263 10.7367H90.7597C90.933 11.4267 91.0197 12.2883 91.0197 13.3233C91.0197 14.315 90.933 15.1767 90.7597 15.91H93.993C94.1663 16.6033 94.253 17.4683 94.253 18.5033Z" fill="#F8F2EB"/>
<path d="M22.898 13.7758H25.2847C25.3147 14.3458 25.5214 14.8191 25.9047 15.1958C26.2864 15.5691 26.9014 15.7558 27.7514 15.7558C28.5647 15.7558 29.1264 15.6274 29.438 15.3691C29.753 15.1124 29.9114 14.7674 29.9114 14.3358C29.9114 13.5624 29.433 13.1124 28.478 12.9824L26.1047 12.6758C25.1614 12.5608 24.433 12.2458 23.918 11.7291C23.4014 11.2141 23.1447 10.5158 23.1447 9.63577C23.1447 8.66744 23.5114 7.87244 24.2447 7.24911C24.9814 6.62744 26.1014 6.31577 27.6047 6.31577C28.6797 6.31577 29.548 6.47244 30.2114 6.78244C30.878 7.09411 31.3747 7.50911 31.7047 8.02911C32.033 8.54911 32.2197 9.12744 32.2647 9.76244H29.858C29.7947 9.25577 29.5814 8.85577 29.218 8.56244C28.853 8.26577 28.3147 8.11577 27.6047 8.11577C26.9514 8.11577 26.453 8.24077 26.1114 8.48911C25.773 8.73411 25.6047 9.06744 25.6047 9.48911C25.6047 9.80077 25.7047 10.0658 25.9047 10.2824C26.1047 10.4958 26.4247 10.6291 26.8647 10.6824L29.1047 10.9558C31.2814 11.2008 32.3714 12.2474 32.3714 14.0958C32.3714 14.7941 32.2147 15.4074 31.9047 15.9358C31.593 16.4608 31.0947 16.8658 30.4114 17.1491C29.7314 17.4324 28.833 17.5758 27.718 17.5758C26.838 17.5758 26.093 17.4708 25.4847 17.2624C24.8797 17.0541 24.3914 16.7691 24.018 16.4091C23.648 16.0491 23.3747 15.6408 23.198 15.1824C23.0197 14.7258 22.9197 14.2558 22.898 13.7758Z" fill="#F8F2EB"/>
<path d="M38.7837 6.5891C39.6004 6.5891 40.257 6.74577 40.7504 7.05577C41.2437 7.36744 41.6054 7.78244 41.837 8.30244C42.067 8.82244 42.1837 9.39577 42.1837 10.0224C42.1837 10.6758 42.067 11.2724 41.837 11.8091C41.6054 12.3474 41.2437 12.7741 40.7504 13.0891C40.257 13.4058 39.6004 13.5624 38.7837 13.5624H35.5637V17.3024H33.097V6.5891H38.7837ZM38.0104 11.6624C38.6137 11.6624 39.037 11.5074 39.277 11.1958C39.517 10.8858 39.637 10.4991 39.637 10.0358C39.637 9.58244 39.5187 9.21244 39.2837 8.92244C39.047 8.6341 38.6304 8.4891 38.0304 8.4891H35.5637V11.6624H38.0104Z" fill="#F8F2EB"/>
<path d="M49.9649 6.5891H52.6916L48.6649 14.0624V17.3024H46.2116V14.0624L42.1716 6.5891H44.9049L46.6649 10.3091C46.7933 10.6124 46.9216 10.9074 47.0516 11.1958C47.1799 11.4858 47.2983 11.7808 47.4049 12.0824C47.5333 11.7808 47.6616 11.4858 47.7916 11.1958C47.9199 10.9074 48.0549 10.6124 48.1983 10.3091L49.9649 6.5891Z" fill="#F8F2EB"/>
<path d="M58.9073 11.1158L63.1339 17.1758V17.3024H60.2006L57.2673 12.9024L55.5606 14.7758V17.3024H53.1073V6.5891H55.5606V11.6291L59.8606 6.5891H63.0473L58.9073 11.1158Z" fill="#F8F2EB"/>
<path d="M66.1296 15.3558H72.1363V17.3024H63.6763V6.5891H72.0896V8.52244H66.1296V10.9224H71.6029V12.7424H66.1296V15.3558Z" fill="#F8F2EB"/>
<path d="M35.7661 29.9981H40.7794V31.9448H33.2994V21.2314H35.7661V29.9981Z" fill="#F8F2EB"/>
<path d="M47.5589 23.1648H45.5789V29.9981H47.5589V31.9448H41.1456V29.9981H43.1256V23.1648H41.1456V21.2314H47.5589V23.1648Z" fill="#F8F2EB"/>
<path d="M61.9301 21.2314V31.9448H59.4834V22.8381L56.6634 31.9448H53.8301L50.9901 22.7914V31.9448H48.5568V21.2314H52.7634L55.2768 29.5248L57.7901 21.2314H61.9301Z" fill="#F8F2EB"/>
</svg>
